<svg width="5369" height="1769" xmlns="http://www.w3.org/2000/svg" xml:space="preserve" version="1.1">
 <g>
  <title>Layer 1</title>
  <g id="Layer_x0020_1">
   <metadata id="CorelCorpID_0Corel-Layer"/>
   <path class="fil0" d="m3026.4101,348l578,0l30,0l138,0c92,0 157,8 196,24c39,17 70,44 94,82c24,38 36,83 36,135c0,55 -13,100 -40,137c-26,36 -65,64 -118,83l197,369l-173,0l-187,-351l-15,0l0,351l-158,0l0,-423c0,-49 46,-83 85,-83l172,0c39,0 84,-31 84,-84c0,-46 -39,-84 -84,-84l-527,0l0,674l-161,0l0,-674l-147,0l0,-156zm-743,-348l33,113l32,112l-60,0l-318,953l-155,0l-176,-528l-93,528l-155,0l146,-830l1,0l154,0l1,0l200,598l240,-721l-44,0l97,-112l97,-113zm-129,692l86,486l154,0l-139,-790l-101,304zm353,-344l454,0l0,154l-297,0l0,151l297,0l0,152l-297,0l0,218l297,0l0,155l-454,0l0,-830zm-1522,453l287,0l0,143l-287,0l0,-143zm-150,-106l-612,194c26,51 64,86 112,106c49,20 102,20 162,1c71,-22 124,-67 160,-133l184,25c-22,69 -56,126 -104,171c-47,45 -109,80 -185,104c-120,38 -228,31 -327,-20c-99,-51 -166,-134 -202,-246c-37,-116 -30,-224 20,-324c51,-101 132,-169 245,-204c119,-38 228,-31 328,22c99,53 168,142 208,267l11,37zm-239,-89c-26,-39 -61,-65 -107,-80c-45,-15 -92,-15 -141,1c-53,17 -95,47 -126,89c-19,27 -32,67 -38,120l412,-130zm4755,-112l-111,106c-75,-80 -160,-119 -254,-119c-79,0 -146,27 -200,81c-55,54 -82,121 -82,200c0,56 12,105 36,147c24,43 58,77 102,102c44,24 93,36 147,36c46,0 88,-8 126,-25c38,-17 80,-48 125,-94l108,112c-62,60 -120,101 -174,124c-55,24 -117,35 -187,35c-129,0 -235,-41 -317,-123c-82,-81 -124,-186 -124,-314c0,-83 19,-157 57,-221c37,-65 91,-116 161,-155c69,-39 145,-59 225,-59c69,0 135,14 198,44c63,28 118,70 164,123zm-941,-146l0,830l-157,0l0,-830l157,0z" fill="#ffff" fill-rule="nonzero" id="svg_1"/>
   <path class="fil0" d="m1003.4101,1673l36,-3c1,14 5,26 11,35c6,9 16,16 29,22c13,6 27,9 43,9c15,0 27,-3 38,-7c11,-4 19,-10 25,-18c5,-7 8,-15 8,-24c0,-9 -3,-16 -8,-23c-5,-7 -14,-12 -26,-17c-7,-3 -24,-7 -50,-13c-26,-7 -44,-13 -55,-18c-13,-7 -23,-16 -30,-27c-7,-10 -10,-22 -10,-35c0,-14 4,-28 12,-40c8,-13 20,-22 36,-28c15,-7 33,-10 52,-10c21,0 39,3 55,10c16,7 29,17 37,30c9,13 14,28 14,45l-36,2c-2,-18 -8,-31 -19,-40c-11,-9 -28,-14 -50,-14c-22,0 -39,4 -49,13c-11,8 -16,18 -16,30c0,10 4,18 11,25c7,6 26,13 57,20c30,7 51,13 62,18c17,8 29,17 37,29c8,11 12,25 12,40c0,15 -5,29 -13,43c-9,13 -21,23 -37,31c-17,7 -35,11 -55,11c-26,0 -47,-4 -64,-11c-18,-8 -31,-19 -41,-34c-10,-15 -15,-32 -16,-51z" fill="#ffff" fill-rule="nonzero" id="svg_2"/>
   <path id="1" class="fil0" d="m1465.4101,1481l38,0l0,163c0,29 -3,51 -10,68c-6,17 -18,30 -35,41c-16,10 -38,16 -66,16c-26,0 -48,-5 -65,-14c-17,-9 -29,-22 -36,-40c-7,-17 -11,-41 -11,-71l0,-163l38,0l0,163c0,25 2,43 7,55c4,11 12,20 23,27c11,6 25,9 41,9c28,0 47,-6 59,-19c12,-12 17,-36 17,-72l0,-163z" fill="#ffff" fill-rule="nonzero"/>
   <polygon id="2" class="fil0" points="1572.4100952148438,1764 1572.4100952148438,1481 1609.4100952148438,1481 1609.4100952148438,1764 " fill="#ffff" fill-rule="nonzero"/>
   <polygon id="3" class="fil0" points="1748.4100952148438,1764 1748.4100952148438,1514 1654.4100952148438,1514 1654.4100952148438,1481 1879.4100952148438,1481 1879.4100952148438,1514 1785.4100952148438,1514 1785.4100952148438,1764 " fill="#ffff" fill-rule="nonzero"/>
   <polygon id="4" class="fil0" points="1918.4100952148438,1764 1918.4100952148438,1481 2123.4100952148438,1481 2123.4100952148438,1514 1956.4100952148438,1514 1956.4100952148438,1601 2112.4100952148438,1601 2112.4100952148438,1634 1956.4100952148438,1634 1956.4100952148438,1731 2129.4100952148438,1731 2129.4100952148438,1764 " fill="#ffff" fill-rule="nonzero"/>
   <path id="5" class="fil0" d="m2279.4101,1673l35,-3c2,14 6,26 12,35c6,9 16,16 28,22c13,6 28,9 44,9c14,0 27,-3 38,-7c11,-4 19,-10 24,-18c6,-7 8,-15 8,-24c0,-9 -2,-16 -7,-23c-6,-7 -14,-12 -26,-17c-8,-3 -24,-7 -50,-13c-27,-7 -45,-13 -55,-18c-14,-7 -24,-16 -30,-27c-7,-10 -10,-22 -10,-35c0,-14 4,-28 12,-40c8,-13 20,-22 35,-28c16,-7 33,-10 52,-10c21,0 40,3 56,10c16,7 28,17 37,30c9,13 13,28 14,45l-36,2c-2,-18 -9,-31 -20,-40c-11,-9 -27,-14 -49,-14c-23,0 -39,4 -50,13c-10,8 -15,18 -15,30c0,10 3,18 11,25c7,6 26,13 56,20c31,7 52,13 63,18c16,8 29,17 37,29c7,11 11,25 11,40c0,15 -4,29 -13,43c-8,13 -21,23 -37,31c-16,7 -34,11 -54,11c-26,0 -47,-4 -65,-11c-17,-8 -31,-19 -40,-34c-10,-15 -15,-32 -16,-51z" fill="#ffff" fill-rule="nonzero"/>
   <path id="6" class="fil0" d="m2544.4101,1626c0,-47 13,-84 38,-110c25,-27 58,-40 98,-40c26,0 49,6 70,19c21,12 37,29 48,52c11,22 17,47 17,76c0,28 -6,54 -17,77c-12,23 -28,40 -50,51c-21,12 -44,18 -69,18c-26,0 -50,-7 -71,-20c-21,-12 -37,-30 -48,-52c-11,-23 -16,-46 -16,-71zm39,1c0,34 9,61 27,80c18,20 42,30 69,30c28,0 52,-10 70,-30c18,-20 27,-48 27,-84c0,-23 -4,-43 -11,-61c-8,-17 -20,-30 -35,-40c-15,-9 -32,-14 -50,-14c-27,0 -50,9 -69,28c-19,18 -28,48 -28,91z" fill="#ffff" fill-rule="nonzero"/>
   <polygon id="7" class="fil0" points="2862.4100952148438,1764 2862.4100952148438,1481 2899.4100952148438,1481 2899.4100952148438,1731 3039.4100952148438,1731 3039.4100952148438,1764 " fill="#ffff" fill-rule="nonzero"/>
   <path id="8" class="fil0" d="m3269.4101,1481l38,0l0,163c0,29 -4,51 -10,68c-6,17 -18,30 -35,41c-17,10 -39,16 -66,16c-26,0 -48,-5 -65,-14c-17,-9 -29,-22 -36,-40c-7,-17 -11,-41 -11,-71l0,-163l38,0l0,163c0,25 2,43 7,55c4,11 12,20 23,27c11,6 25,9 41,9c27,0 47,-6 59,-19c11,-12 17,-36 17,-72l0,-163z" fill="#ffff" fill-rule="nonzero"/>
   <polygon id="9" class="fil0" points="3441.4100952148438,1764 3441.4100952148438,1514 3348.4100952148438,1514 3348.4100952148438,1481 3572.4100952148438,1481 3572.4100952148438,1514 3479.4100952148438,1514 3479.4100952148438,1764 " fill="#ffff" fill-rule="nonzero"/>
   <polygon id="10" class="fil0" points="3617.4100952148438,1764 3617.4100952148438,1481 3655.4100952148438,1481 3655.4100952148438,1764 " fill="#ffff" fill-rule="nonzero"/>
   <path id="11" class="fil0" d="m3710.4101,1626c0,-47 12,-84 37,-110c26,-27 58,-40 98,-40c26,0 50,6 71,19c21,12 37,29 48,52c11,22 17,47 17,76c0,28 -6,54 -18,77c-11,23 -28,40 -49,51c-21,12 -44,18 -69,18c-27,0 -50,-7 -72,-20c-20,-12 -36,-30 -47,-52c-11,-23 -16,-46 -16,-71zm38,1c0,34 9,61 28,80c18,20 41,30 69,30c28,0 51,-10 70,-30c18,-20 27,-48 27,-84c0,-23 -4,-43 -12,-61c-8,-17 -19,-30 -34,-40c-15,-9 -32,-14 -51,-14c-26,0 -49,9 -68,28c-19,18 -29,48 -29,91z" fill="#ffff" fill-rule="nonzero"/>
   <polygon id="12" class="fil0" points="4028.4100952148438,1764 4028.4100952148438,1481 4067.4100952148438,1481 4216.410095214844,1703 4216.410095214844,1481 4252.410095214844,1481 4252.410095214844,1764 4213.410095214844,1764 4065.4100952148438,1542 4065.4100952148438,1764 " fill="#ffff" fill-rule="nonzero"/>
   <path id="13" class="fil0" d="m4302.4101,1673l36,-3c1,14 5,26 11,35c7,9 16,16 29,22c13,6 27,9 43,9c15,0 27,-3 38,-7c11,-4 19,-10 25,-18c5,-7 8,-15 8,-24c0,-9 -3,-16 -8,-23c-5,-7 -14,-12 -26,-17c-7,-3 -24,-7 -50,-13c-26,-7 -44,-13 -55,-18c-13,-7 -23,-16 -30,-27c-7,-10 -10,-22 -10,-35c0,-14 4,-28 12,-40c8,-13 20,-22 36,-28c15,-7 33,-10 52,-10c21,0 39,3 55,10c16,7 29,17 37,30c9,13 14,28 14,45l-36,2c-2,-18 -8,-31 -19,-40c-11,-9 -28,-14 -50,-14c-22,0 -39,4 -49,13c-11,8 -16,18 -16,30c0,10 4,18 11,25c7,6 26,13 57,20c30,7 51,13 62,18c17,8 29,17 37,29c8,11 12,25 12,40c0,15 -5,29 -13,43c-9,13 -21,23 -37,31c-17,7 -35,11 -55,11c-26,0 -47,-4 -64,-11c-18,-8 -31,-19 -41,-34c-10,-15 -15,-32 -16,-51z" fill="#ffff" fill-rule="nonzero"/>
   <polygon id="14" class="fil0" points="4687.410095214844,1764 4687.410095214844,1481 4725.410095214844,1481 4725.410095214844,1731 4864.410095214844,1731 4864.410095214844,1764 " fill="#ffff" fill-rule="nonzero"/>
   <polygon id="15" class="fil0" points="4907.410095214844,1764 4907.410095214844,1481 4945.410095214844,1481 4945.410095214844,1731 5084.410095214844,1731 5084.410095214844,1764 " fill="#ffff" fill-rule="nonzero"/>
   <path id="16" class="fil0" d="m5331.4101,1665l38,9c-8,31 -22,54 -43,70c-20,17 -45,25 -75,25c-30,0 -55,-6 -74,-19c-19,-12 -34,-30 -44,-54c-10,-24 -15,-49 -15,-76c0,-29 6,-55 17,-77c12,-22 28,-39 48,-50c21,-11 44,-17 69,-17c28,0 52,7 71,21c20,15 33,35 41,61l-37,9c-7,-21 -16,-36 -29,-45c-12,-9 -28,-14 -47,-14c-21,0 -40,5 -54,16c-15,10 -25,24 -31,42c-6,17 -9,35 -9,54c0,24 4,45 11,63c7,18 18,31 32,40c15,9 31,14 48,14c21,0 39,-6 53,-18c15,-13 25,-31 30,-54z" fill="#ffff" fill-rule="nonzero"/>
  </g>
 </g>

</svg>